# xmcd CD database file
#
# Track frame offsets:
#	187
#	19945
#	41417
#	61135
#
# Disc length: 1101 seconds
#
# Revision: 0
# Processed by: cddbd v1.5PL3 Copyright (c) Steve Scherf et al.
# Submitted via: CDex 1.50beta9
#
DISCID=29044b04
DTITLE=高橋真梨子 - はがゆい唇
DYEAR=1992
DGENRE=J-POP
TTITLE0=はがゆい唇
TTITLE1=ＬＯＶＥＲＳ　ＢＥＬＬ
TTITLE2=はがゆい唇　カラオケ
TTITLE3=ＬＯＶＥＲＳ　ＢＥＬＬ　カラオケ
EXTD=YEAR: 1992
EXTT0=
EXTT1=
EXTT2=
EXTT3=
PLAYORDER=
